<?xml version="1.0" encoding="UTF-8" standalone="no"?>
<svg
   xmlns:dc="http://purl.org/dc/elements/1.1/"
   xmlns:cc="http://creativecommons.org/ns#"
   xmlns:rdf="http://www.w3.org/1999/02/22-rdf-syntax-ns#"
   xmlns:svg="http://www.w3.org/2000/svg"
   xmlns="http://www.w3.org/2000/svg"
   width="129.34038mm"
   height="143.16519mm"
   viewBox="0 0 129.34038 143.1652"
   version="1.1"
   id="svg8">
  <defs
     id="defs2" />
  <metadata
     id="metadata5">
    <rdf:RDF>
      <cc:Work
         rdf:about="">
        <dc:format>image/svg+xml</dc:format>
        <dc:type
           rdf:resource="http://purl.org/dc/dcmitype/StillImage" />
        <dc:title></dc:title>
      </cc:Work>
    </rdf:RDF>
  </metadata>
  <g
     id="g889">
    <path
       id="rect960"
       style="fill:#666666;fill-opacity:1;stroke-width:0.300174"
       d="m 7.141405,39.066918 a 2.5,3.3017684 0 0 0 -2.471166,3.301908 2.5,3.3017684 0 0 0 2.472201,3.301226 v 6.82e-4 h 0.0279 114.97231 v -6.82e-4 a 2.5,3.3017684 0 0 0 0.0274,6.82e-4 2.5,3.3017684 0 0 0 2.5001,-3.301908 2.5,3.3017684 0 0 0 -2.5001,-3.301908 2.5,3.3017684 0 0 0 -0.0274,0 H 7.170345 a 2.5,3.3017684 0 0 0 -0.0279,0 2.5,3.3017684 0 0 0 -0.001,0 z" />
    <path
       d="m 7.141397,123.9769 a 2.5,3.3017685 0 0 0 -2.471166,3.30191 2.5,3.3017685 0 0 0 2.472201,3.30122 v 6.9e-4 h 0.0279 114.972308 v -6.9e-4 a 2.5,3.3017685 0 0 0 0.0274,6.9e-4 2.5,3.3017685 0 0 0 2.50011,-3.30191 2.5,3.3017685 0 0 0 -2.50011,-3.30191 2.5,3.3017685 0 0 0 -0.0274,0 H 7.170337 a 2.5,3.3017685 0 0 0 -0.0279,0 2.5,3.3017685 0 0 0 -0.001,0 z"
       style="fill:#666666;fill-opacity:1;stroke-width:0.300175"
       id="rect960-0" />
    <rect
       style="fill:#666666;fill-opacity:1;stroke-width:0.311879"
       id="rect1013"
       width="17.5"
       height="70"
       x="19.356895"
       y="49.823795" />
    <path
       id="rect1069"
       style="fill:#4d4d4d;fill-opacity:1;stroke-width:0.190161"
       d="m 18.974924,120.24513 a 1.0175168,1.0761819 0 0 0 -1.010876,1.07623 1.0175168,1.0761819 0 0 0 1.017252,1.07622 1.0175168,1.0761819 0 0 0 0.0068,0 h 18.210516 v -8.9e-4 a 1.0175168,1.0761819 0 0 0 0.03387,8.9e-4 1.0175168,1.0761819 0 0 0 1.017251,-1.07622 1.0175168,1.0761819 0 0 0 -1.017251,-1.07623 1.0175168,1.0761819 0 0 0 -0.03387,8.9e-4 v -8.9e-4 H 18.983717 a 1.0175168,1.0761819 0 0 0 -0.0024,0 1.0175168,1.0761819 0 0 0 -0.0064,0 z" />
    <path
       d="m 18.974924,47.250005 a 1.0175168,1.0761819 0 0 0 -1.010876,1.076228 1.0175168,1.0761819 0 0 0 1.017252,1.076227 1.0175168,1.0761819 0 0 0 0.0068,0 h 18.210516 v -8.89e-4 a 1.0175168,1.0761819 0 0 0 0.03387,8.89e-4 1.0175168,1.0761819 0 0 0 1.017251,-1.076227 1.0175168,1.0761819 0 0 0 -1.017251,-1.076228 1.0175168,1.0761819 0 0 0 -0.03387,8.91e-4 v -8.91e-4 H 18.983717 a 1.0175168,1.0761819 0 0 0 -0.0024,0 1.0175168,1.0761819 0 0 0 -0.0064,0 z"
       style="fill:#4d4d4d;fill-opacity:1;stroke-width:0.190161"
       id="rect1069-2" />
    <rect
       y="49.823792"
       x="55.920193"
       height="70"
       width="17.5"
       id="rect1013-1"
       style="fill:#666666;fill-opacity:1;stroke-width:0.31188" />
    <path
       d="m 55.538223,120.24513 a 1.0175168,1.0761819 0 0 0 -1.010877,1.07623 1.0175168,1.0761819 0 0 0 1.017253,1.07622 1.0175168,1.0761819 0 0 0 0.0068,0 h 18.210516 v -7.9e-4 a 1.0175168,1.0761819 0 0 0 0.03387,7.9e-4 1.0175168,1.0761819 0 0 0 1.017252,-1.07622 1.0175168,1.0761819 0 0 0 -1.017252,-1.07623 1.0175168,1.0761819 0 0 0 -0.03387,7.9e-4 v -7.9e-4 H 55.547016 a 1.0175168,1.0761819 0 0 0 -0.0024,0 1.0175168,1.0761819 0 0 0 -0.0064,0 z"
       style="fill:#4d4d4d;fill-opacity:1;stroke-width:0.190161"
       id="rect1069-26" />
    <path
       id="rect1069-2-9"
       style="fill:#4d4d4d;fill-opacity:1;stroke-width:0.190161"
       d="m 55.538223,47.250003 a 1.0175168,1.0761819 0 0 0 -1.010877,1.076228 1.0175168,1.0761819 0 0 0 1.017253,1.076227 1.0175168,1.0761819 0 0 0 0.0068,0 h 18.210516 v -8.89e-4 a 1.0175168,1.0761819 0 0 0 0.03387,8.89e-4 1.0175168,1.0761819 0 0 0 1.017252,-1.076227 1.0175168,1.0761819 0 0 0 -1.017252,-1.076228 1.0175168,1.0761819 0 0 0 -0.03387,8.91e-4 v -8.91e-4 H 55.547016 a 1.0175168,1.0761819 0 0 0 -0.0024,0 1.0175168,1.0761819 0 0 0 -0.0064,0 z" />
    <rect
       y="49.823795"
       x="92.48349"
       height="70"
       width="17.5"
       id="rect1013-3"
       style="fill:#666666;fill-opacity:1;stroke-width:0.31188" />
    <path
       d="m 92.101522,120.24513 a 1.0175168,1.0761819 0 0 0 -1.010876,1.07623 1.0175168,1.0761819 0 0 0 1.017252,1.07622 1.0175168,1.0761819 0 0 0 0.0068,0 h 18.210512 v -7.9e-4 a 1.0175168,1.0761819 0 0 0 0.0339,7.9e-4 1.0175168,1.0761819 0 0 0 1.01725,-1.07622 1.0175168,1.0761819 0 0 0 -1.01725,-1.07623 1.0175168,1.0761819 0 0 0 -0.0339,7.9e-4 v -7.9e-4 H 92.110315 a 1.0175168,1.0761819 0 0 0 -0.0024,0 1.0175168,1.0761819 0 0 0 -0.0064,0 z"
       style="fill:#4d4d4d;fill-opacity:1;stroke-width:0.190161"
       id="rect1069-9" />
    <path
       id="rect1069-2-2"
       style="fill:#4d4d4d;fill-opacity:1;stroke-width:0.190161"
       d="m 92.101522,47.250004 a 1.0175168,1.0761819 0 0 0 -1.010876,1.076228 1.0175168,1.0761819 0 0 0 1.017252,1.076227 1.0175168,1.0761819 0 0 0 0.0068,0 h 18.210512 v -8.89e-4 a 1.0175168,1.0761819 0 0 0 0.0339,8.89e-4 1.0175168,1.0761819 0 0 0 1.01725,-1.076227 1.0175168,1.0761819 0 0 0 -1.01725,-1.076228 1.0175168,1.0761819 0 0 0 -0.0339,8.91e-4 v -8.91e-4 H 92.110315 a 1.0175168,1.0761819 0 0 0 -0.0024,0 1.0175168,1.0761819 0 0 0 -0.0064,0 z" />
    <path
       id="rect960-0-0"
       style="fill:#333333;fill-opacity:1;stroke-width:0.4023"
       d="M 2.663515,132.1601 A 2.6945931,5.5023258 0 0 0 1.5923142e-8,137.66266 2.6945931,5.5023258 0 0 0 2.664631,143.16408 v 0.001 h 0.03006 123.921439 v -0.001 a 2.6945931,5.5023258 0 0 0 0.0295,0.001 2.6945931,5.5023258 0 0 0 2.69471,-5.50256 2.6945931,5.5023258 0 0 0 -2.69471,-5.50255 2.6945931,5.5023258 0 0 0 -0.0295,0 H 2.694712 a 2.6945931,5.5023258 0 0 0 -0.03007,0 2.6945931,5.5023258 0 0 0 -0.0011,0 z" />
    <path
       id="rect861"
       style="fill:#333333;fill-opacity:1;stroke-width:0.220973"
       d="m 64.67019,2e-6 c -0.04962,0.0071 -0.09543,0.01661 -0.133326,0.03204 -4.87302,0.01331 -4.324687,0.35754 -30.266886,16.246555 -17.006226,9.982596 -16.990131,9.973325 -27.870134,16.226916 -1.678297,0.965764 -1.757738,1.958782 -1.724443,2.470134 0.0055,0.799862 0.447125,2.427333 1.938901,2.504755 v 0.0072 h 0.160713 0.02429 57.870886 57.870889 0.0243 0.16071 v -0.0072 c 1.49178,-0.07742 1.9334,-1.704893 1.9389,-2.504755 0.0333,-0.511352 -0.0461,-1.50437 -1.72444,-2.470134 C 112.06053,26.25192 112.07663,26.261191 95.0704,16.278595 69.128201,0.38958 69.676534,0.045352 64.803515,0.03204 64.765609,0.01662 64.7198,0.0071 64.67019,0 Z" />
    <circle
       style="fill:#666666;fill-opacity:1;stroke-width:0.220588"
       id="path1225"
       cx="64.670189"
       cy="20.331303"
       r="7.5" />
  </g>
</svg>
