<?xml version="1.0" encoding="UTF-8" standalone="no"?>
<svg
   xmlns:dc="http://purl.org/dc/elements/1.1/"
   xmlns:cc="http://creativecommons.org/ns#"
   xmlns:rdf="http://www.w3.org/1999/02/22-rdf-syntax-ns#"
   xmlns:svg="http://www.w3.org/2000/svg"
   xmlns="http://www.w3.org/2000/svg"
   width="198.42763mm"
   height="118.42764mm"
   viewBox="0 0 198.42763 118.42764"
   version="1.1"
   id="svg8">
  <defs
     id="defs2" />
  <metadata
     id="metadata5">
    <rdf:RDF>
      <cc:Work
         rdf:about="">
        <dc:format>image/svg+xml</dc:format>
        <dc:type
           rdf:resource="http://purl.org/dc/dcmitype/StillImage" />
        <dc:title></dc:title>
      </cc:Work>
    </rdf:RDF>
  </metadata>
  <g
     id="layer1">
    <path
       d="M 1.4999448,0 A 1.50015,1.50015 0 0 0 0.05662176,1.90841 l 0.427879,1.508953 V 116.92774 a 1.50015,1.50015 0 0 0 1.50016904,1.50017 H 197.41046 a 1.50015,1.50015 0 0 0 1.49965,-1.50017 V 1.500166 A 1.50015,1.50015 0 0 0 197.41046,0 h -0.9679 -0.0145 H 1.9846398 Z m 1.984375,2.999817 H 194.44526 l -20.60132,72.634844 -74.879146,16.24035 -74.8807,-16.24035 z M 195.91029,8.823235 V 115.42758 H 3.4843198 V 13.994495 L 21.443428,77.318281 a 1.50015,1.50015 0 0 0 1.124996,1.05678 l 76.07804,16.49977 a 1.50015,1.50015 0 0 0 0.63666,0 l 76.076486,-16.49977 a 1.50015,1.50015 0 0 0 1.12499,-1.05678 z"
       style="color:#000000;font-style:normal;font-variant:normal;font-weight:normal;font-stretch:normal;font-size:medium;line-height:normal;font-family:sans-serif;font-variant-ligatures:normal;font-variant-position:normal;font-variant-caps:normal;font-variant-numeric:normal;font-variant-alternates:normal;font-variant-east-asian:normal;font-feature-settings:normal;font-variation-settings:normal;text-indent:0;text-align:start;text-decoration:none;text-decoration-line:none;text-decoration-style:solid;text-decoration-color:#000000;letter-spacing:normal;word-spacing:normal;text-transform:none;writing-mode:lr-tb;direction:ltr;text-orientation:mixed;dominant-baseline:auto;baseline-shift:baseline;text-anchor:start;white-space:normal;shape-padding:0;shape-margin:0;inline-size:0;clip-rule:nonzero;display:inline;overflow:visible;visibility:visible;opacity:1;isolation:auto;mix-blend-mode:normal;color-interpolation:sRGB;color-interpolation-filters:linearRGB;solid-color:#000000;solid-opacity:1;vector-effect:none;fill:#000000;fill-opacity:1;fill-rule:nonzero;stroke:none;stroke-width:3;stroke-linecap:round;stroke-linejoin:round;stroke-miterlimit:4;stroke-dasharray:none;stroke-dashoffset:0;stroke-opacity:1;paint-order:normal;color-rendering:auto;image-rendering:auto;shape-rendering:auto;text-rendering:auto;enable-background:accumulate;stop-color:#000000;stop-opacity:1"
       id="path846" />
  </g>
</svg>
